<svg xmlns="http://www.w3.org/2000/svg" viewBox="0 0 512 512" width="512" height="512">
  <defs>
    <linearGradient id="sky" x1="0%" y1="0%" x2="100%" y2="100%">
      <stop offset="0%" style="stop-color:#38bdf8;stop-opacity:1" />
      <stop offset="100%" style="stop-color:#0284c7;stop-opacity:1" />
    </linearGradient>
    <linearGradient id="mountain" x1="0%" y1="0%" x2="0%" y2="100%">
      <stop offset="0%" style="stop-color:#475569;stop-opacity:1" />
      <stop offset="100%" style="stop-color:#334155;stop-opacity:1" />
    </linearGradient>
    <linearGradient id="snow" x1="0%" y1="0%" x2="0%" y2="100%">
      <stop offset="0%" style="stop-color:#f1f5f9;stop-opacity:1" />
      <stop offset="100%" style="stop-color:#e2e8f0;stop-opacity:1" />
    </linearGradient>
    <linearGradient id="drop" x1="0%" y1="0%" x2="0%" y2="100%">
      <stop offset="0%" style="stop-color:#7dd3fc;stop-opacity:1" />
      <stop offset="100%" style="stop-color:#0ea5e9;stop-opacity:1" />
    </linearGradient>
  </defs>
  <!-- Background circle -->
  <circle cx="256" cy="256" r="240" fill="url(#sky)" />
  <!-- Mountain -->
  <polygon points="75,390 256,120 437,390" fill="url(#mountain)" />
  <!-- Snow cap -->
  <polygon points="256,120 208,195 256,175 304,195" fill="url(#snow)" />
  <!-- Second mountain -->
  <polygon points="155,390 305,185 455,390" fill="#3b4f63" opacity="0.6" />
  <!-- Water drop -->
  <path d="M256,270 Q256,270 224,325 Q224,365 256,380 Q288,365 288,325 Q288,270 256,270Z" fill="url(#drop)" />
  <ellipse cx="246" cy="338" rx="10" ry="16" fill="white" opacity="0.4" />
</svg>
