<svg xmlns="http://www.w3.org/2000/svg" viewBox="0 0 192 192" width="192" height="192">
  <defs>
    <linearGradient id="sky" x1="0%" y1="0%" x2="100%" y2="100%">
      <stop offset="0%" style="stop-color:#38bdf8;stop-opacity:1" />
      <stop offset="100%" style="stop-color:#0284c7;stop-opacity:1" />
    </linearGradient>
    <linearGradient id="mountain" x1="0%" y1="0%" x2="0%" y2="100%">
      <stop offset="0%" style="stop-color:#475569;stop-opacity:1" />
      <stop offset="100%" style="stop-color:#334155;stop-opacity:1" />
    </linearGradient>
    <linearGradient id="snow" x1="0%" y1="0%" x2="0%" y2="100%">
      <stop offset="0%" style="stop-color:#f1f5f9;stop-opacity:1" />
      <stop offset="100%" style="stop-color:#e2e8f0;stop-opacity:1" />
    </linearGradient>
    <linearGradient id="drop" x1="0%" y1="0%" x2="0%" y2="100%">
      <stop offset="0%" style="stop-color:#7dd3fc;stop-opacity:1" />
      <stop offset="100%" style="stop-color:#0ea5e9;stop-opacity:1" />
    </linearGradient>
  </defs>
  <!-- Background circle -->
  <circle cx="96" cy="96" r="88" fill="url(#sky)" />
  <!-- Mountain -->
  <polygon points="30,145 96,50 162,145" fill="url(#mountain)" />
  <!-- Snow cap -->
  <polygon points="96,50 78,78 96,70 114,78" fill="url(#snow)" />
  <!-- Second mountain -->
  <polygon points="60,145 115,75 170,145" fill="#3b4f63" opacity="0.6" />
  <!-- Water drop -->
  <path d="M96,105 Q96,105 84,125 Q84,140 96,145 Q108,140 108,125 Q108,105 96,105Z" fill="url(#drop)" />
  <ellipse cx="92" cy="128" rx="4" ry="6" fill="white" opacity="0.4" />
</svg>
